<svg width="188" height="55" viewBox="0 0 188 55" fill="none" xmlns="http://www.w3.org/2000/svg">
<g clip-path="url(#clip0_92_829)">
<mask id="mask0_92_829" style="mask-type:luminance" maskUnits="userSpaceOnUse" x="0" y="0" width="188" height="55">
<path d="M188 0.0390625H0V54.961H188V0.0390625Z" fill="white"/>
</mask>
<g mask="url(#mask0_92_829)">
<path d="M171.155 8.5294L171.497 7.43832C169.164 6.74055 167.012 6.39166 165.041 6.39166C152.369 6.39166 142.081 17.2733 142.081 30.6763C142.081 44.0794 152.369 54.961 165.041 54.961C168.763 54.961 172.273 54.0222 175.377 52.3557C173.073 53.1031 170.612 53.5073 168.055 53.5073C164.847 53.6909 161.8 53.222 159.029 52.2142C150.38 49.069 144.42 40.6741 144.647 30.4728C144.647 20.3726 150.582 11.4629 159.782 8.35837C163.745 7.01381 167.596 7.18825 171.155 8.5294Z" fill="#1D1D1D"/>
<path fill-rule="evenodd" clip-rule="evenodd" d="M151.744 24.3486C152.328 22.9805 153.383 21.2703 154.908 19.2181C155.941 20.0029 156.768 20.6015 157.388 21.0138C158.007 21.426 158.72 21.8536 159.525 22.2964C158.837 23.8647 158.409 25.0049 158.243 25.7168C158.076 26.4287 157.877 27.9679 157.644 30.3343L150.547 30.4198C150.761 27.7405 151.16 25.7168 151.744 24.3486ZM159.525 26.2298C159.728 25.4032 160.156 24.2631 160.808 22.8095C162.177 23.3249 163.289 23.6669 164.143 23.8356C164.997 24.0042 166.222 24.1468 167.82 24.2631V30.3343L159.098 30.4198C159.18 28.4531 159.322 27.0564 159.525 26.2298ZM185.178 24.3486C184.594 22.9805 183.539 21.2703 182.014 19.2181C180.981 20.0029 180.154 20.6015 179.535 21.0138C178.915 21.426 178.202 21.8536 177.397 22.2964C177.971 23.9218 178.342 25.0904 178.508 25.8023C178.675 26.5142 178.903 28.0249 179.193 30.3343L186.375 30.4198C186.162 27.7405 185.762 25.7168 185.178 24.3486ZM177.397 26.2298C177.194 25.4032 176.766 24.2631 176.114 22.8095C174.745 23.3249 173.633 23.6669 172.779 23.8356C171.925 24.0042 170.7 24.1468 169.102 24.2631V30.3343L177.824 30.4198C177.742 28.4531 177.6 27.0564 177.397 26.2298ZM151.744 37.7736C152.328 39.1418 153.383 40.8519 154.908 42.9042C155.941 42.1193 156.768 41.5207 157.388 41.1085C158.007 40.6962 158.72 40.2687 159.525 39.8258C158.837 38.2575 158.409 37.1174 158.243 36.4055C158.076 35.6935 157.877 34.1544 157.644 31.7879L150.547 31.7024C150.761 34.3817 151.16 36.4055 151.744 37.7736ZM159.525 35.8924C159.728 36.719 160.156 37.8591 160.808 39.3128C162.177 38.7974 163.289 38.4553 164.143 38.2867C164.997 38.118 166.222 37.9755 167.82 37.8591V31.7879L159.098 31.7024C159.18 33.6692 159.322 35.0658 159.525 35.8924ZM185.178 37.7736C184.594 39.1418 183.539 40.8519 182.014 42.9042C180.981 42.1193 180.154 41.5207 179.535 41.1085C178.915 40.6962 178.174 40.2687 177.311 39.8258C177.886 38.3715 178.256 37.2884 178.423 36.5765C178.59 35.8646 178.875 34.2684 179.278 31.7879L186.375 31.7024C186.162 34.3817 185.762 36.4055 185.178 37.7736ZM177.397 35.8924C177.194 36.719 176.766 37.8591 176.114 39.3128C174.745 38.7974 173.633 38.4553 172.779 38.2867C171.925 38.118 170.7 37.9755 169.102 37.8591V31.7879L177.824 31.7024C177.742 33.6692 177.6 35.0658 177.397 35.8924ZM164.734 22.5529C165.448 22.6898 166.476 22.7753 167.82 22.8095V13.7455C165.931 15.4343 164.62 16.7739 163.886 17.7644C162.963 19.0111 162.164 20.2652 161.492 21.5268C162.869 22.0605 163.95 22.4026 164.734 22.5529ZM172.188 22.5529C171.475 22.6898 170.446 22.7753 169.102 22.8095V13.7455C170.991 15.4343 172.302 16.7739 173.036 17.7644C173.96 19.0111 174.758 20.2652 175.43 21.5268C174.053 22.0605 172.972 22.4026 172.188 22.5529ZM166.11 13.3179C165.564 13.8278 163.491 15.8779 162.689 16.9948C161.888 18.1117 160.316 20.5755 160.124 20.8427C160.14 20.9764 158.748 20.2312 158.67 20.1587C158.593 20.0862 156.638 18.8487 156.019 18.2775C155.938 17.8663 158.773 15.8281 160.551 14.9426C162.382 14.031 166.425 12.912 166.11 13.3179ZM170.744 13.3179C171.29 13.8278 173.363 15.8779 174.165 16.9948C174.966 18.1117 176.538 20.5755 176.73 20.8427C176.714 20.9764 178.106 20.2312 178.184 20.1587C178.261 20.0862 180.216 18.8487 180.835 18.2775C180.916 17.8663 178.081 15.8281 176.303 14.9426C174.472 14.031 170.429 12.912 170.744 13.3179ZM164.734 39.4836C165.448 39.3468 166.476 39.2612 167.82 39.2271V48.2911C165.931 46.6023 164.62 45.2626 163.886 44.2722C162.963 43.0255 162.164 41.7714 161.492 40.5097C162.869 39.976 163.95 39.634 164.734 39.4836ZM172.188 39.4836C171.475 39.3468 170.446 39.2612 169.102 39.2271V48.2911C170.991 46.6023 172.302 45.2626 173.036 44.2722C173.96 43.0255 174.758 41.7714 175.43 40.5097C174.053 39.976 172.972 39.634 172.188 39.4836ZM166.11 48.7187C165.564 48.2088 163.491 46.1586 162.689 45.0417C161.888 43.9248 160.316 41.461 160.124 41.1938C160.14 41.0602 158.748 41.8054 158.67 41.8779C158.593 41.9504 156.638 43.1879 156.019 43.7591C155.938 44.1703 158.773 46.2085 160.551 47.094C162.382 48.0055 166.425 49.1246 166.11 48.7187ZM149.008 30.9756C149.008 20.3334 157.744 11.6932 168.504 11.6932C179.264 11.6932 188 20.3334 188 30.9756C188 41.6178 179.264 50.258 168.504 50.258C157.744 50.258 149.008 41.6178 149.008 30.9756ZM170.744 48.7187C171.29 48.2088 173.363 46.1586 174.165 45.0417C174.966 43.9248 176.538 41.461 176.73 41.1938C176.714 41.0602 178.106 41.8054 178.184 41.8779C178.261 41.9504 180.216 43.1879 180.835 43.7591C180.916 44.1703 178.081 46.2085 176.303 47.094C174.472 48.0055 170.429 49.1246 170.744 48.7187Z" fill="#1D1D1D"/>
<path d="M176.338 11.2392L172.584 15.5973C171.881 16.5921 172.694 17.3526 173.656 16.7019C175.867 15.4299 177.763 14.0283 179.462 12.6164L182.347 13.7482C183.769 14.0811 184.618 13.8946 184.892 13.4235C184.803 12.6342 184.147 12.0044 183.048 11.4003L180.704 10.4581L179.347 4.14874C179.012 2.53179 178.012 2.2787 177.842 3.70288L177.277 9.1368L172.888 7.43829L171.771 5.30507L170.446 4.92238L171.007 7.8334L168.504 9.4286L170.126 10.1181L172.193 9.42343L176.338 11.2392Z" fill="#1D1D1D"/>
<path d="M80.7629 45.382H72.2615V21.2549H67.7714V13.8911H72.2615C72.1019 8.31726 72.2416 5.07137 72.6806 4.15339C73.7413 2.07784 78.0942 -0.659784 84.6543 0.202048L88.007 0.920471L87.3484 7.38629C85.1989 6.15479 83.0133 6.16436 80.7629 7.38629C80.7629 10.6452 80.7629 12.8134 80.7629 13.8911H86.8695V21.2549H80.7629V45.382ZM101.477 45.382H92.9761V3.17457H101.477V45.382ZM121.773 54.961H114.828L117.702 45.382L116.735 42.5086L107.105 13.8911H114.948L121.893 33.7675L128.358 13.8911H136.081L121.773 54.961Z" fill="#1D1D1D"/>
<path d="M13.8297 38.4372C15.506 38.4372 16.8031 38.0181 17.7211 37.18C18.6391 36.3418 19.0981 35.3241 19.0981 34.1267V25.2063C19.0981 23.969 18.6391 22.9312 17.7211 22.0931C16.8031 21.2549 15.506 20.8358 13.8297 20.8358C12.1134 20.8358 10.7963 21.2649 9.87833 22.123C8.96035 22.9811 8.50136 24.0089 8.50136 25.2063V34.1267C8.50136 35.3241 8.96035 36.3418 9.87833 37.18C10.7963 38.0181 12.1134 38.4372 13.8297 38.4372ZM13.8297 46.1004C12.1932 46.1004 10.5469 45.9009 8.89049 45.5017C7.23413 45.1026 5.74739 44.4341 4.43027 43.4961C3.11317 42.5582 2.04552 41.3309 1.22731 39.8142C0.409105 38.2975 0 36.5015 0 34.426V24.7872C0 23.1508 0.289362 21.6241 0.868088 20.2072C1.44682 18.7903 2.3249 17.5531 3.50232 16.4954C4.67974 15.4377 6.14653 14.6195 7.90267 14.0408C9.65881 13.462 11.6345 13.1727 13.8297 13.1727C15.4661 13.1727 17.1125 13.3722 18.7688 13.7713C20.4252 14.1705 21.902 14.839 23.1991 15.7769C24.4963 16.7149 25.5539 17.9422 26.3722 19.4589C27.1904 20.9755 27.5995 22.7516 27.5995 24.7872V34.426C27.5995 35.6234 27.4298 36.7908 27.0906 37.9283C26.7513 39.0658 26.2624 40.1036 25.6238 41.0415C24.9852 41.9795 24.177 42.7977 23.1991 43.4961C22.2213 44.1946 20.964 44.8033 19.4274 45.3221C17.8908 45.841 16.0248 46.1004 13.8297 46.1004ZM43.9436 45.382H35.4422V13.8911H42.6265V16.8246C45.2208 14.39 48.2741 13.1727 51.7864 13.1727C55.2189 13.1727 57.903 14.2603 59.8387 16.4355C61.7745 18.6107 62.7424 21.6141 62.7424 25.4457V45.382H54.241V25.9247C54.241 24.2883 53.8319 23.031 53.0137 22.153C52.1955 21.2749 51.1478 20.8358 49.8706 20.8358C48.9127 20.8358 47.885 21.1053 46.7874 21.6441C45.6898 22.1829 44.7418 22.9113 43.9436 23.8293V45.382Z" fill="#1D1D1D"/>
</g>
</g>
<defs>
<clipPath id="clip0_92_829">
<rect width="188" height="55" fill="white"/>
</clipPath>
</defs>
</svg>
